<mxfile host="app.diagrams.net" modified="2021-08-22T20:02:21.225Z" agent="5.0 (Macintosh; Intel Mac OS X 10_15_7) AppleWebKit/537.36 (KHTML, like Gecko) Chrome/92.0.4515.159 Safari/537.36" etag="Zk2hogx0G015mfFmdbaQ" version="14.9.5" type="github">
  <diagram id="7C1zHKz_L_XaID7tGxn1" name="Page-1">
    <mxGraphModel dx="1613" dy="1683" grid="0" gridSize="10" guides="1" tooltips="1" connect="1" arrows="1" fold="1" page="1" pageScale="1" pageWidth="827" pageHeight="1169" math="0" shadow="0">
      <root>
        <mxCell id="0" />
        <mxCell id="1" parent="0" />
        <mxCell id="nDdKCuJg6omg3RGkGIXK-6" value="" style="rounded=0;whiteSpace=wrap;html=1;sketch=1;strokeColor=#6c8ebf;fillColor=#dae8fc;" parent="1" vertex="1">
          <mxGeometry x="148" y="61" width="494" height="136" as="geometry" />
        </mxCell>
        <mxCell id="nDdKCuJg6omg3RGkGIXK-39" value="" style="rounded=0;whiteSpace=wrap;html=1;sketch=1;strokeColor=#d79b00;fillColor=#ffe6cc;" parent="1" vertex="1">
          <mxGeometry x="145" y="-45" width="497" height="78" as="geometry" />
        </mxCell>
        <mxCell id="nDdKCuJg6omg3RGkGIXK-82" style="edgeStyle=orthogonalEdgeStyle;rounded=1;sketch=1;orthogonalLoop=1;jettySize=auto;html=1;fontColor=#5C5C5C;fillColor=#21C0A5;strokeColor=#A680B8;" parent="1" source="nDdKCuJg6omg3RGkGIXK-52" target="nDdKCuJg6omg3RGkGIXK-9" edge="1">
          <mxGeometry relative="1" as="geometry">
            <Array as="points">
              <mxPoint x="122" y="258" />
              <mxPoint x="122" y="258" />
            </Array>
          </mxGeometry>
        </mxCell>
        <mxCell id="nDdKCuJg6omg3RGkGIXK-83" style="edgeStyle=orthogonalEdgeStyle;rounded=1;sketch=1;orthogonalLoop=1;jettySize=auto;html=1;entryX=0;entryY=0.5;entryDx=0;entryDy=0;fontColor=#5C5C5C;fillColor=#21C0A5;exitX=0.5;exitY=0;exitDx=0;exitDy=0;strokeColor=#A680B8;" parent="1" source="nDdKCuJg6omg3RGkGIXK-52" target="nDdKCuJg6omg3RGkGIXK-39" edge="1">
          <mxGeometry relative="1" as="geometry" />
        </mxCell>
        <mxCell id="nDdKCuJg6omg3RGkGIXK-91" style="edgeStyle=orthogonalEdgeStyle;rounded=1;sketch=1;orthogonalLoop=1;jettySize=auto;html=1;entryX=0.002;entryY=0.596;entryDx=0;entryDy=0;entryPerimeter=0;fontColor=#5C5C5C;fillColor=#21C0A5;exitX=1;exitY=0.32;exitDx=0;exitDy=0;exitPerimeter=0;strokeColor=#A680B8;" parent="1" source="nDdKCuJg6omg3RGkGIXK-52" target="nDdKCuJg6omg3RGkGIXK-6" edge="1">
          <mxGeometry relative="1" as="geometry" />
        </mxCell>
        <mxCell id="nDdKCuJg6omg3RGkGIXK-52" value="" style="rounded=0;whiteSpace=wrap;html=1;sketch=1;strokeColor=#9673a6;fillColor=#e1d5e7;" parent="1" vertex="1">
          <mxGeometry x="-65" y="65" width="167" height="253" as="geometry" />
        </mxCell>
        <mxCell id="nDdKCuJg6omg3RGkGIXK-7" value="&lt;b&gt;Data&lt;/b&gt;" style="text;html=1;align=center;verticalAlign=middle;resizable=0;points=[];autosize=1;strokeColor=none;fontColor=#5C5C5C;" parent="1" vertex="1">
          <mxGeometry x="603" y="43" width="36" height="18" as="geometry" />
        </mxCell>
        <mxCell id="nDdKCuJg6omg3RGkGIXK-8" value="" style="rounded=0;whiteSpace=wrap;html=1;sketch=1;strokeColor=#d6b656;fillColor=#fff2cc;" parent="1" vertex="1">
          <mxGeometry x="678" y="-11.5" width="166" height="263" as="geometry" />
        </mxCell>
        <mxCell id="nDdKCuJg6omg3RGkGIXK-9" value="" style="rounded=0;whiteSpace=wrap;html=1;sketch=1;strokeColor=#b85450;fillColor=#f8cecc;" parent="1" vertex="1">
          <mxGeometry x="136" y="231" width="147" height="71" as="geometry" />
        </mxCell>
        <mxCell id="nDdKCuJg6omg3RGkGIXK-10" value="&lt;b&gt;Domain&lt;/b&gt;" style="text;html=1;align=center;verticalAlign=middle;resizable=0;points=[];autosize=1;strokeColor=none;fontColor=#5C5C5C;" parent="1" vertex="1">
          <mxGeometry x="795" y="-33" width="54" height="18" as="geometry" />
        </mxCell>
        <mxCell id="nDdKCuJg6omg3RGkGIXK-11" value="&lt;b&gt;Utils&lt;/b&gt;" style="text;html=1;align=center;verticalAlign=middle;resizable=0;points=[];autosize=1;strokeColor=none;fontColor=#5C5C5C;" parent="1" vertex="1">
          <mxGeometry x="245" y="211" width="36" height="18" as="geometry" />
        </mxCell>
        <mxCell id="nDdKCuJg6omg3RGkGIXK-18" style="edgeStyle=orthogonalEdgeStyle;rounded=1;sketch=1;orthogonalLoop=1;jettySize=auto;html=1;exitX=0.5;exitY=1;exitDx=0;exitDy=0;entryX=0.5;entryY=0;entryDx=0;entryDy=0;fontColor=#5C5C5C;strokeColor=#006658;fillColor=#21C0A5;" parent="1" edge="1">
          <mxGeometry relative="1" as="geometry">
            <mxPoint x="447" y="484" as="targetPoint" />
          </mxGeometry>
        </mxCell>
        <mxCell id="nDdKCuJg6omg3RGkGIXK-22" style="edgeStyle=orthogonalEdgeStyle;rounded=1;sketch=1;orthogonalLoop=1;jettySize=auto;html=1;exitX=0.811;exitY=1.074;exitDx=0;exitDy=0;entryX=0.5;entryY=0;entryDx=0;entryDy=0;fontColor=#5C5C5C;strokeColor=#006658;fillColor=#21C0A5;exitPerimeter=0;" parent="1" edge="1">
          <mxGeometry relative="1" as="geometry">
            <Array as="points">
              <mxPoint x="565" y="274" />
              <mxPoint x="579" y="274" />
            </Array>
            <mxPoint x="565.0149999999999" y="279.0160000000001" as="sourcePoint" />
          </mxGeometry>
        </mxCell>
        <mxCell id="nDdKCuJg6omg3RGkGIXK-32" style="edgeStyle=orthogonalEdgeStyle;rounded=1;sketch=1;orthogonalLoop=1;jettySize=auto;html=1;exitX=0;exitY=0.5;exitDx=0;exitDy=0;entryX=1;entryY=0.5;entryDx=0;entryDy=0;fontColor=#5C5C5C;strokeColor=#006658;fillColor=#21C0A5;" parent="1" edge="1">
          <mxGeometry relative="1" as="geometry">
            <mxPoint x="418.25" y="262" as="targetPoint" />
          </mxGeometry>
        </mxCell>
        <mxCell id="nDdKCuJg6omg3RGkGIXK-77" style="edgeStyle=orthogonalEdgeStyle;rounded=1;sketch=1;orthogonalLoop=1;jettySize=auto;html=1;entryX=0.75;entryY=0;entryDx=0;entryDy=0;fontColor=#5C5C5C;strokeColor=#577845;fillColor=#21C0A5;" parent="1" edge="1">
          <mxGeometry relative="1" as="geometry">
            <mxPoint x="529.3000000000002" y="276.5" as="sourcePoint" />
          </mxGeometry>
        </mxCell>
        <mxCell id="nDdKCuJg6omg3RGkGIXK-78" style="edgeStyle=orthogonalEdgeStyle;rounded=1;sketch=1;orthogonalLoop=1;jettySize=auto;html=1;entryX=0.5;entryY=0;entryDx=0;entryDy=0;fontColor=#5C5C5C;strokeColor=#577845;fillColor=#21C0A5;exitX=0.25;exitY=1;exitDx=0;exitDy=0;" parent="1" edge="1">
          <mxGeometry relative="1" as="geometry">
            <Array as="points">
              <mxPoint x="501" y="295" />
              <mxPoint x="378" y="295" />
            </Array>
            <mxPoint x="500.5" y="276.5" as="sourcePoint" />
          </mxGeometry>
        </mxCell>
        <mxCell id="nDdKCuJg6omg3RGkGIXK-23" value="AddAccount" style="rounded=1;whiteSpace=wrap;html=1;sketch=1;dashed=1;shadow=0;strokeColor=#FFB570;" parent="1" vertex="1">
          <mxGeometry x="723.5" y="81" width="75" height="37" as="geometry" />
        </mxCell>
        <mxCell id="nDdKCuJg6omg3RGkGIXK-24" value="MongoDb" style="rounded=0;whiteSpace=wrap;html=1;sketch=1;fillColor=#f5f5f5;strokeColor=#666666;fontColor=#333333;" parent="1" vertex="1">
          <mxGeometry x="431" y="-114" width="83.5" height="34" as="geometry" />
        </mxCell>
        <mxCell id="nDdKCuJg6omg3RGkGIXK-26" value="BCrypt" style="rounded=0;whiteSpace=wrap;html=1;sketch=1;fillColor=#f5f5f5;strokeColor=#666666;fontColor=#333333;" parent="1" vertex="1">
          <mxGeometry x="183" y="-106" width="71" height="34" as="geometry" />
        </mxCell>
        <mxCell id="nDdKCuJg6omg3RGkGIXK-33" style="edgeStyle=orthogonalEdgeStyle;rounded=1;sketch=1;orthogonalLoop=1;jettySize=auto;html=1;exitX=1;exitY=0.5;exitDx=0;exitDy=0;fontColor=#5C5C5C;fillColor=#21C0A5;strokeColor=#F19C99;entryX=0;entryY=0.5;entryDx=0;entryDy=0;" parent="1" edge="1" target="lAJpir4XiLAiajnAOQv4-17">
          <mxGeometry relative="1" as="geometry">
            <mxPoint x="268" y="262" as="sourcePoint" />
            <mxPoint x="298" y="262" as="targetPoint" />
            <Array as="points">
              <mxPoint x="288" y="262" />
              <mxPoint x="288" y="272" />
            </Array>
          </mxGeometry>
        </mxCell>
        <mxCell id="nDdKCuJg6omg3RGkGIXK-59" style="edgeStyle=orthogonalEdgeStyle;rounded=1;sketch=1;orthogonalLoop=1;jettySize=auto;html=1;entryX=0;entryY=0.5;entryDx=0;entryDy=0;fontColor=#5C5C5C;fillColor=#21C0A5;exitX=1;exitY=0.5;exitDx=0;exitDy=0;strokeColor=#7EA6E0;" parent="1" source="nDdKCuJg6omg3RGkGIXK-37" target="nDdKCuJg6omg3RGkGIXK-23" edge="1">
          <mxGeometry relative="1" as="geometry">
            <Array as="points">
              <mxPoint x="626" y="178" />
              <mxPoint x="626" y="100" />
            </Array>
          </mxGeometry>
        </mxCell>
        <mxCell id="nDdKCuJg6omg3RGkGIXK-60" style="edgeStyle=orthogonalEdgeStyle;rounded=1;sketch=1;orthogonalLoop=1;jettySize=auto;html=1;entryX=0;entryY=0.5;entryDx=0;entryDy=0;fontColor=#5C5C5C;fillColor=#21C0A5;strokeColor=#7EA6E0;" parent="1" source="nDdKCuJg6omg3RGkGIXK-37" target="nDdKCuJg6omg3RGkGIXK-48" edge="1">
          <mxGeometry relative="1" as="geometry">
            <Array as="points">
              <mxPoint x="499" y="168" />
              <mxPoint x="499" y="98" />
            </Array>
          </mxGeometry>
        </mxCell>
        <mxCell id="nDdKCuJg6omg3RGkGIXK-94" style="edgeStyle=orthogonalEdgeStyle;rounded=1;sketch=1;orthogonalLoop=1;jettySize=auto;html=1;entryX=0.5;entryY=1;entryDx=0;entryDy=0;fontColor=#5C5C5C;fillColor=#21C0A5;strokeColor=#7EA6E0;" parent="1" source="nDdKCuJg6omg3RGkGIXK-37" target="nDdKCuJg6omg3RGkGIXK-84" edge="1">
          <mxGeometry relative="1" as="geometry" />
        </mxCell>
        <mxCell id="nDdKCuJg6omg3RGkGIXK-95" style="edgeStyle=orthogonalEdgeStyle;rounded=1;sketch=1;orthogonalLoop=1;jettySize=auto;html=1;fontColor=#5C5C5C;fillColor=#21C0A5;strokeColor=#7EA6E0;" parent="1" source="nDdKCuJg6omg3RGkGIXK-37" target="nDdKCuJg6omg3RGkGIXK-41" edge="1">
          <mxGeometry relative="1" as="geometry" />
        </mxCell>
        <mxCell id="nDdKCuJg6omg3RGkGIXK-37" value="AddAccount" style="rounded=0;whiteSpace=wrap;html=1;sketch=1;strokeColor=#7EA6E0;" parent="1" vertex="1">
          <mxGeometry x="352.5" y="152" width="71" height="34" as="geometry" />
        </mxCell>
        <mxCell id="nDdKCuJg6omg3RGkGIXK-44" style="edgeStyle=orthogonalEdgeStyle;rounded=1;sketch=1;orthogonalLoop=1;jettySize=auto;html=1;fontColor=#5C5C5C;fillColor=#21C0A5;strokeColor=#FFB570;" parent="1" source="nDdKCuJg6omg3RGkGIXK-40" target="nDdKCuJg6omg3RGkGIXK-41" edge="1">
          <mxGeometry relative="1" as="geometry" />
        </mxCell>
        <mxCell id="nDdKCuJg6omg3RGkGIXK-45" style="edgeStyle=orthogonalEdgeStyle;rounded=1;sketch=1;orthogonalLoop=1;jettySize=auto;html=1;fontColor=#5C5C5C;fillColor=#21C0A5;strokeColor=#FFB570;" parent="1" source="nDdKCuJg6omg3RGkGIXK-40" target="nDdKCuJg6omg3RGkGIXK-26" edge="1">
          <mxGeometry relative="1" as="geometry" />
        </mxCell>
        <mxCell id="nDdKCuJg6omg3RGkGIXK-40" value="BCryptAdapter" style="rounded=0;whiteSpace=wrap;html=1;sketch=1;strokeColor=#FFB570;" parent="1" vertex="1">
          <mxGeometry x="170.5" y="-26" width="96" height="34" as="geometry" />
        </mxCell>
        <mxCell id="nDdKCuJg6omg3RGkGIXK-41" value="Encrypter" style="rounded=1;whiteSpace=wrap;html=1;sketch=1;dashed=1;shadow=0;strokeColor=#7EA6E0;" parent="1" vertex="1">
          <mxGeometry x="181" y="82" width="75" height="37" as="geometry" />
        </mxCell>
        <mxCell id="nDdKCuJg6omg3RGkGIXK-46" value="&lt;b&gt;Infra&lt;/b&gt;" style="text;html=1;align=center;verticalAlign=middle;resizable=0;points=[];autosize=1;strokeColor=none;fontColor=#5C5C5C;" parent="1" vertex="1">
          <mxGeometry x="604" y="-65" width="36" height="18" as="geometry" />
        </mxCell>
        <mxCell id="nDdKCuJg6omg3RGkGIXK-51" style="edgeStyle=orthogonalEdgeStyle;rounded=1;sketch=1;orthogonalLoop=1;jettySize=auto;html=1;fontColor=#5C5C5C;fillColor=#21C0A5;entryX=0.677;entryY=1.029;entryDx=0;entryDy=0;entryPerimeter=0;strokeColor=#FFB570;" parent="1" source="nDdKCuJg6omg3RGkGIXK-47" target="nDdKCuJg6omg3RGkGIXK-24" edge="1">
          <mxGeometry relative="1" as="geometry" />
        </mxCell>
        <mxCell id="nDdKCuJg6omg3RGkGIXK-56" style="edgeStyle=orthogonalEdgeStyle;rounded=1;sketch=1;orthogonalLoop=1;jettySize=auto;html=1;fontColor=#5C5C5C;fillColor=#21C0A5;strokeColor=#FFB570;" parent="1" source="nDdKCuJg6omg3RGkGIXK-47" target="nDdKCuJg6omg3RGkGIXK-48" edge="1">
          <mxGeometry relative="1" as="geometry" />
        </mxCell>
        <mxCell id="nDdKCuJg6omg3RGkGIXK-47" value="AddUserMongoRepo" style="rounded=0;whiteSpace=wrap;html=1;sketch=1;strokeColor=#FFB570;" parent="1" vertex="1">
          <mxGeometry x="495" y="-27" width="128" height="34" as="geometry" />
        </mxCell>
        <mxCell id="nDdKCuJg6omg3RGkGIXK-48" value="AddUserRepo" style="rounded=1;whiteSpace=wrap;html=1;sketch=1;dashed=1;shadow=0;strokeColor=#7EA6E0;" parent="1" vertex="1">
          <mxGeometry x="517.5" y="85" width="83" height="37" as="geometry" />
        </mxCell>
        <mxCell id="nDdKCuJg6omg3RGkGIXK-53" value="&lt;b&gt;Main / Presentation&lt;/b&gt;" style="text;html=1;align=center;verticalAlign=middle;resizable=0;points=[];autosize=1;strokeColor=none;fontColor=#5C5C5C;" parent="1" vertex="1">
          <mxGeometry x="-15" y="40" width="120" height="18" as="geometry" />
        </mxCell>
        <mxCell id="nDdKCuJg6omg3RGkGIXK-64" style="edgeStyle=orthogonalEdgeStyle;rounded=1;sketch=1;orthogonalLoop=1;jettySize=auto;html=1;entryX=0;entryY=0.5;entryDx=0;entryDy=0;fontColor=#5C5C5C;fillColor=#21C0A5;" parent="1" source="nDdKCuJg6omg3RGkGIXK-62" edge="1">
          <mxGeometry relative="1" as="geometry">
            <mxPoint x="-44" y="162" as="targetPoint" />
          </mxGeometry>
        </mxCell>
        <mxCell id="nDdKCuJg6omg3RGkGIXK-62" value="Express" style="rounded=0;whiteSpace=wrap;html=1;sketch=1;fillColor=#f5f5f5;strokeColor=#666666;fontColor=#333333;" parent="1" vertex="1">
          <mxGeometry x="-159" y="145" width="71" height="34" as="geometry" />
        </mxCell>
        <mxCell id="nDdKCuJg6omg3RGkGIXK-65" value="Sigup Composer" style="rounded=0;whiteSpace=wrap;html=1;sketch=1;strokeColor=#A680B8;" parent="1" vertex="1">
          <mxGeometry x="-42" y="85" width="125.5" height="34" as="geometry" />
        </mxCell>
        <mxCell id="nDdKCuJg6omg3RGkGIXK-69" style="edgeStyle=orthogonalEdgeStyle;rounded=1;sketch=1;orthogonalLoop=1;jettySize=auto;html=1;entryX=0.5;entryY=1;entryDx=0;entryDy=0;fontColor=#5C5C5C;strokeColor=#577845;fillColor=#21C0A5;" parent="1" edge="1">
          <mxGeometry relative="1" as="geometry">
            <mxPoint x="18.799999999999955" y="201" as="sourcePoint" />
          </mxGeometry>
        </mxCell>
        <mxCell id="nDdKCuJg6omg3RGkGIXK-71" style="edgeStyle=orthogonalEdgeStyle;rounded=1;sketch=1;orthogonalLoop=1;jettySize=auto;html=1;fontColor=#5C5C5C;strokeColor=#577845;fillColor=#21C0A5;" parent="1" edge="1">
          <mxGeometry relative="1" as="geometry">
            <mxPoint x="18.799999999999955" y="240" as="targetPoint" />
          </mxGeometry>
        </mxCell>
        <mxCell id="nDdKCuJg6omg3RGkGIXK-84" value="LoadUserByEmailRepo" style="rounded=1;whiteSpace=wrap;html=1;sketch=1;dashed=1;shadow=0;strokeColor=#7EA6E0;" parent="1" vertex="1">
          <mxGeometry x="314.25" y="82" width="145" height="37" as="geometry" />
        </mxCell>
        <mxCell id="nDdKCuJg6omg3RGkGIXK-87" style="edgeStyle=orthogonalEdgeStyle;rounded=1;sketch=1;orthogonalLoop=1;jettySize=auto;html=1;fontColor=#5C5C5C;fillColor=#21C0A5;strokeColor=#FFB570;" parent="1" source="nDdKCuJg6omg3RGkGIXK-85" target="nDdKCuJg6omg3RGkGIXK-84" edge="1">
          <mxGeometry relative="1" as="geometry" />
        </mxCell>
        <mxCell id="nDdKCuJg6omg3RGkGIXK-88" style="edgeStyle=orthogonalEdgeStyle;rounded=1;sketch=1;orthogonalLoop=1;jettySize=auto;html=1;entryX=0.359;entryY=1.147;entryDx=0;entryDy=0;fontColor=#5C5C5C;fillColor=#21C0A5;exitX=0.5;exitY=0;exitDx=0;exitDy=0;entryPerimeter=0;strokeColor=#FFB570;" parent="1" source="nDdKCuJg6omg3RGkGIXK-85" target="nDdKCuJg6omg3RGkGIXK-24" edge="1">
          <mxGeometry relative="1" as="geometry" />
        </mxCell>
        <mxCell id="nDdKCuJg6omg3RGkGIXK-85" value="LoadUserByEmailMongoRepo" style="rounded=0;whiteSpace=wrap;html=1;sketch=1;strokeColor=#FFB570;" parent="1" vertex="1">
          <mxGeometry x="301" y="-27" width="171.5" height="35" as="geometry" />
        </mxCell>
        <mxCell id="lAJpir4XiLAiajnAOQv4-1" value="Express Adapter" style="rounded=0;whiteSpace=wrap;html=1;sketch=1;strokeColor=#A680B8;" vertex="1" parent="1">
          <mxGeometry x="-44.25" y="138" width="125.5" height="34" as="geometry" />
        </mxCell>
        <mxCell id="lAJpir4XiLAiajnAOQv4-2" value="SignUp Router" style="rounded=0;whiteSpace=wrap;html=1;sketch=1;strokeColor=#A680B8;" vertex="1" parent="1">
          <mxGeometry x="-42" y="197" width="125.5" height="34" as="geometry" />
        </mxCell>
        <mxCell id="lAJpir4XiLAiajnAOQv4-3" value="App" style="rounded=0;whiteSpace=wrap;html=1;sketch=1;strokeColor=#A680B8;" vertex="1" parent="1">
          <mxGeometry x="-42" y="255" width="125.5" height="34" as="geometry" />
        </mxCell>
        <mxCell id="lAJpir4XiLAiajnAOQv4-4" style="edgeStyle=orthogonalEdgeStyle;rounded=1;sketch=1;orthogonalLoop=1;jettySize=auto;html=1;fontColor=#5C5C5C;fillColor=#21C0A5;strokeColor=#A680B8;" edge="1" parent="1">
          <mxGeometry relative="1" as="geometry">
            <Array as="points">
              <mxPoint x="18" y="190" />
              <mxPoint x="18" y="190" />
            </Array>
            <mxPoint x="18" y="197" as="sourcePoint" />
            <mxPoint x="18" y="174" as="targetPoint" />
          </mxGeometry>
        </mxCell>
        <mxCell id="lAJpir4XiLAiajnAOQv4-5" style="edgeStyle=orthogonalEdgeStyle;rounded=1;sketch=1;orthogonalLoop=1;jettySize=auto;html=1;fontColor=#5C5C5C;fillColor=#21C0A5;strokeColor=#A680B8;" edge="1" parent="1">
          <mxGeometry relative="1" as="geometry">
            <Array as="points">
              <mxPoint x="18" y="233" />
            </Array>
            <mxPoint x="18" y="259" as="sourcePoint" />
            <mxPoint x="18" y="233" as="targetPoint" />
          </mxGeometry>
        </mxCell>
        <mxCell id="lAJpir4XiLAiajnAOQv4-18" value="" style="edgeStyle=orthogonalEdgeStyle;rounded=0;orthogonalLoop=1;jettySize=auto;html=1;" edge="1" parent="1" source="lAJpir4XiLAiajnAOQv4-6" target="lAJpir4XiLAiajnAOQv4-9">
          <mxGeometry relative="1" as="geometry" />
        </mxCell>
        <mxCell id="lAJpir4XiLAiajnAOQv4-6" value="" style="rounded=0;whiteSpace=wrap;html=1;sketch=1;strokeColor=#82b366;fillColor=#d5e8d4;" vertex="1" parent="1">
          <mxGeometry x="305" y="237" width="337" height="136" as="geometry" />
        </mxCell>
        <mxCell id="lAJpir4XiLAiajnAOQv4-7" value="&lt;b&gt;Presentation&lt;/b&gt;" style="text;html=1;align=center;verticalAlign=middle;resizable=0;points=[];autosize=1;strokeColor=none;fontColor=#5C5C5C;" vertex="1" parent="1">
          <mxGeometry x="561" y="213" width="83" height="18" as="geometry" />
        </mxCell>
        <mxCell id="lAJpir4XiLAiajnAOQv4-8" value="Email Adapter" style="rounded=0;whiteSpace=wrap;html=1;sketch=1;strokeColor=#EA6B66;" vertex="1" parent="1">
          <mxGeometry x="145" y="247" width="125.5" height="34" as="geometry" />
        </mxCell>
        <mxCell id="lAJpir4XiLAiajnAOQv4-9" value="Validator" style="rounded=0;whiteSpace=wrap;html=1;sketch=1;fillColor=#f5f5f5;strokeColor=#666666;fontColor=#333333;" vertex="1" parent="1">
          <mxGeometry x="150" y="335" width="120.5" height="34" as="geometry" />
        </mxCell>
        <mxCell id="lAJpir4XiLAiajnAOQv4-12" style="edgeStyle=orthogonalEdgeStyle;rounded=1;sketch=1;orthogonalLoop=1;jettySize=auto;html=1;fontColor=#5C5C5C;fillColor=#21C0A5;" edge="1" parent="1">
          <mxGeometry relative="1" as="geometry">
            <mxPoint x="207" y="282" as="targetPoint" />
            <mxPoint x="207.25" y="337" as="sourcePoint" />
            <Array as="points">
              <mxPoint x="207" y="321" />
              <mxPoint x="207" y="321" />
            </Array>
          </mxGeometry>
        </mxCell>
        <mxCell id="lAJpir4XiLAiajnAOQv4-13" value="SignUp Controller" style="rounded=0;whiteSpace=wrap;html=1;sketch=1;strokeColor=#006600;" vertex="1" parent="1">
          <mxGeometry x="478.5" y="255" width="125.5" height="34" as="geometry" />
        </mxCell>
        <mxCell id="lAJpir4XiLAiajnAOQv4-14" value="Http Response" style="rounded=1;whiteSpace=wrap;html=1;sketch=1;dashed=1;shadow=0;strokeColor=#006600;" vertex="1" parent="1">
          <mxGeometry x="338" y="313" width="89" height="37" as="geometry" />
        </mxCell>
        <mxCell id="lAJpir4XiLAiajnAOQv4-15" value="Http Request" style="rounded=1;whiteSpace=wrap;html=1;sketch=1;dashed=1;shadow=0;strokeColor=#006600;" vertex="1" parent="1">
          <mxGeometry x="443" y="313" width="83" height="37" as="geometry" />
        </mxCell>
        <mxCell id="lAJpir4XiLAiajnAOQv4-16" value="Controller" style="rounded=1;whiteSpace=wrap;html=1;sketch=1;dashed=1;shadow=0;strokeColor=#006600;" vertex="1" parent="1">
          <mxGeometry x="540" y="313" width="83" height="37" as="geometry" />
        </mxCell>
        <mxCell id="lAJpir4XiLAiajnAOQv4-17" value="Email Adapter" style="rounded=1;whiteSpace=wrap;html=1;sketch=1;dashed=1;shadow=0;strokeColor=#006600;" vertex="1" parent="1">
          <mxGeometry x="332" y="253.5" width="89" height="37" as="geometry" />
        </mxCell>
        <mxCell id="lAJpir4XiLAiajnAOQv4-19" style="edgeStyle=orthogonalEdgeStyle;rounded=1;sketch=1;orthogonalLoop=1;jettySize=auto;html=1;fontColor=#5C5C5C;fillColor=#21C0A5;strokeColor=#009900;entryX=1;entryY=0.5;entryDx=0;entryDy=0;" edge="1" parent="1" target="lAJpir4XiLAiajnAOQv4-17">
          <mxGeometry relative="1" as="geometry">
            <mxPoint x="478.5" y="274" as="sourcePoint" />
            <mxPoint x="445.25" y="274.5" as="targetPoint" />
            <Array as="points">
              <mxPoint x="477" y="274" />
              <mxPoint x="477" y="272" />
            </Array>
          </mxGeometry>
        </mxCell>
        <mxCell id="lAJpir4XiLAiajnAOQv4-20" style="edgeStyle=orthogonalEdgeStyle;rounded=1;sketch=1;orthogonalLoop=1;jettySize=auto;html=1;fontColor=#5C5C5C;fillColor=#21C0A5;strokeColor=#009900;" edge="1" parent="1">
          <mxGeometry relative="1" as="geometry">
            <mxPoint x="514.5" y="290.5" as="sourcePoint" />
            <mxPoint x="513.25" y="314" as="targetPoint" />
            <Array as="points">
              <mxPoint x="513.25" y="290.5" />
            </Array>
          </mxGeometry>
        </mxCell>
        <mxCell id="lAJpir4XiLAiajnAOQv4-21" style="edgeStyle=orthogonalEdgeStyle;rounded=1;sketch=1;orthogonalLoop=1;jettySize=auto;html=1;fontColor=#5C5C5C;fillColor=#21C0A5;strokeColor=#009900;entryX=0.82;entryY=0;entryDx=0;entryDy=0;entryPerimeter=0;" edge="1" parent="1" target="lAJpir4XiLAiajnAOQv4-14">
          <mxGeometry relative="1" as="geometry">
            <mxPoint x="488.25" y="289" as="sourcePoint" />
            <mxPoint x="411" y="303" as="targetPoint" />
            <Array as="points">
              <mxPoint x="487" y="289" />
              <mxPoint x="487" y="304" />
              <mxPoint x="411" y="304" />
            </Array>
          </mxGeometry>
        </mxCell>
        <mxCell id="lAJpir4XiLAiajnAOQv4-22" style="edgeStyle=orthogonalEdgeStyle;rounded=1;sketch=1;orthogonalLoop=1;jettySize=auto;html=1;fontColor=#5C5C5C;fillColor=#21C0A5;strokeColor=#009900;" edge="1" parent="1">
          <mxGeometry relative="1" as="geometry">
            <mxPoint x="589.25" y="289.5" as="sourcePoint" />
            <mxPoint x="588" y="313" as="targetPoint" />
            <Array as="points">
              <mxPoint x="588" y="289.5" />
            </Array>
          </mxGeometry>
        </mxCell>
        <mxCell id="lAJpir4XiLAiajnAOQv4-23" style="edgeStyle=orthogonalEdgeStyle;rounded=1;sketch=1;orthogonalLoop=1;jettySize=auto;html=1;fontColor=#5C5C5C;fillColor=#21C0A5;strokeColor=#009900;entryX=0.673;entryY=1.081;entryDx=0;entryDy=0;entryPerimeter=0;" edge="1" parent="1" target="nDdKCuJg6omg3RGkGIXK-23">
          <mxGeometry relative="1" as="geometry">
            <mxPoint x="605" y="274" as="sourcePoint" />
            <mxPoint x="710" y="274" as="targetPoint" />
            <Array as="points">
              <mxPoint x="774" y="274" />
            </Array>
          </mxGeometry>
        </mxCell>
      </root>
    </mxGraphModel>
  </diagram>
</mxfile>
